<svg width="663" height="199" viewBox="0 0 663 199" xmlns="http://www.w3.org/2000/svg"><title>svg</title><g fill="none" fill-rule="evenodd"><g transform="translate(65 44)"><path fill="#E1E3E8" d="M245 23l4.308 5.437 1.088 70.506-4.3 7.057zm66.755-18.953h4.332v98.172l-4.332 2.797zM372 5h4.332v66.74c0 16.31 10.71 23.569 32.132 21.776C384.154 98.199 372 89.836 372 68.428V5zm64-1h4.332v66.74c0 20.82-11.037 33.148-33.112 36.987 19.187-6.597 28.78-20.03 28.78-40.3V4zm42.96 9.82c-5.658 3.526-8.933 6.36-9.824 8.502-2.592 6.23 1.386 13.288 6.223 16.498 10.998 7.298 32.24 7.847 41.736 26.458 6.33 12.408 3.827 23.81-7.51 34.206 8.088-10.92 10.168-21.236 6.242-30.947-3.203-7.922-10.177-14.203-21.431-19.167-9.44-4.163-23.207-6.88-27.46-13.897-6.215-10.257-2.207-17.475 12.025-21.654zM249.29 3.928l4.534 2.369 45.792 72.857v4.081zM211 3h4v97l-4 5zM64 5h5v76.056c0 8.216-5.249 15.272-15.746 21.168C60.418 92.953 64 86.324 64 82.336V5zm88.24.24c23.254 8.33 34.802 23.971 34.64 46.923-.16 22.952-9.134 38.37-26.92 46.252 14.17-10.599 21.799-25.543 22.889-44.833 1.09-19.29-9.114-35.405-30.61-48.343z"/><path d="M459.337 75.2l3.046 1.39c3.426 8.877 8.772 14.053 16.04 15.53 12.579 2.554 21.208-1.63 25.888-12.55-3.28 11.104-10.775 16.445-22.487 16.022-11.712-.423-19.208-7.22-22.487-20.393zM93.76 70.144c-9.325-22.02-2.796-39.516 19.586-52.488C96.396 32.52 91.811 49.002 99.59 67.099c7.78 18.097 23.45 25.852 47.01 23.263-25.902 8.541-43.515 1.802-52.84-20.218zm-80.102 8.638c3.03 9.121 9.144 13.613 18.342 13.474 9.198-.139 15.318-4.63 18.36-13.474C49.801 89.787 43.681 95.29 32 95.29c-11.682 0-17.796-5.503-18.342-16.508z" fill="#E1E3E8"/><circle stroke="#4F5A76" cx="130" cy="54" r="53"/><circle stroke="#4F5A76" cx="130" cy="54" r="40"/><path d="M51.257 2.89v73.546c0 5.697-3.994 20.333-20.022 19.101-10.685-.82-16.78-6.2-18.288-16.137L.837 84.596c4.356 16.053 14.934 24.026 31.735 23.92 25.201-.16 31.734-22.751 31.734-29.116V2.89h-13.05zm147.639-.369v102.865h12.33V2.52zm33.677.422v102.72h13.453l-1-84.254 53.42 84.253h13.477V2.943h-13.477l1.22 80.934-50.944-80.934zm126.615.007v68.958c0 21.736 19.881 37.253 38.949 36.616 19.067-.636 37.442-15.143 37.442-39.165V2.95h-13.304v68.96c0 16.161-12.038 24.097-24.891 23.437-12.853-.66-24.747-5.095-24.747-25.987V2.95h-13.449zm87.75 77.529l12.164-4.674c5.058 13.782 13.139 20.274 24.243 19.476 16.656-1.197 26.74-13.449 17.775-25.688-8.965-12.24-48.287-15.73-50.397-36.144-2.11-20.414 10.775-31.667 31.426-33.01 13.768-.895 24.43 6.043 31.986 20.814l-11.664 4.833c-3.998-9.1-10.374-13.39-19.126-12.868-13.13.782-26.586 9.89-15.752 22.511 10.834 12.623 28.902 9.652 40.126 21.625 11.92 12.715 9.812 23.125 8.883 27.54-3.378 16.043-20.997 25.805-39.982 22.74-12.657-2.042-22.551-11.094-29.683-27.155z" stroke="#4F5A76"/><path d="M68.99 4.743v75.974c0 9.273-6.852 17.183-20.554 23.731M145.474 3.295c26.956 6.536 40.875 22.482 41.756 47.84.882 25.357-10.794 42.349-35.028 50.975m63.07-98.453v96.77l-4.028 4.856m34.874.683l3.972-6.664-1.038-71.887m.022-24.317l4.6 3.01 45.974 72.915m15.821-74.524v97.38l-3.572 3.81m64.641-100.72v66.535c0 17.098 11.345 24.165 34.034 21.202" stroke="#4F5A76"/><path d="M440.191 4.552v67.602c0 19.284-11.773 31.149-35.32 35.594m74.406-93.915c-9.387 3.91-12.846 9.616-10.379 17.118 3.702 11.253 22.722 13.677 31.867 18.165 9.144 4.488 19.921 14.461 19.593 30.088-.219 10.418-6.75 18.802-19.593 25.152" stroke="#4F5A76"/></g><path d="M171 107l16.66-1c3.186 1.952 6.244 2.618 9.173 2 3.22-.68 6.107-2.112 8.66-4.296l3.604 2.296 10.771-3.296 2.037 10.648-9.542 5.34v15.185c-6.543 1.386-12.23 1.784-17.058 1.194-4.83-.59-9.609-2.265-14.339-5.027v-9.118L171 119v-12z" fill="#B0D7F6"/><path d="M177 67c.21 2.881.96 5.489 2.251 7.823 1.937 3.502 6.84 6.205 11.425 6.993 3.056.525 7.43-.072 13.12-1.789 1.608-1.739 2.336-3.526 2.184-5.362-.228-2.754-3.106-5.93-6.293-6.536-3.186-.606-3.823 2.14-10.072 2.14-4.165 0-8.37-1.09-12.615-3.269z" stroke="#4F5A76" fill="#EDEEF0"/><path d="M183.49 80c-.653 8.392-.653 13.924 0 16.597.979 4.008 4.387 3.183 5.31 5.135.614 1.301.614 2.879 0 4.733 2.21 1.48 4.906 1.89 8.089 1.23 3.182-.66 5.924-2.197 8.226-4.612V91.795c2.042-1.092 3-2.298 2.874-3.619-.126-1.32-1.295-2.31-3.505-2.97V80M188 106l-17 .808v11.845l9.56 2.224V130" stroke="#4F5A76"/><path stroke="#4F5A76" d="M205 103l3.614 2.947L219.666 103 222 113.429l-9.945 5.04V134"/><path d="M171 107.234l-1.977-.62-14.311-24.447c2.18-2.147 3.11-3.507 2.788-4.08-.483-.86-2.544 1.408-4.17 1.408-1.084 0-1.976-.47-2.677-1.408-.774-2.576-1.634-4.168-2.579-4.777-.945-.608-2.107-.321-3.488.861-1.008 1.329-.715 3.698.88 7.108 2.392 5.115 3.413 3.614 5.808 5.757 2.394 2.143 8.984 22.107 11.642 25.716 1.773 2.405 4.467 3.475 8.084 3.208v-8.726zM221.612 113c8.093-6.266 13.432-11.759 16.016-16.48 3.877-7.08 9.634-10.983 10.836-13.619 1.202-2.636.242-6.623-1.484-6.893-1.726-.27-5.367 6.312-6.725 6.893-1.357.581-1.567-5.525-2.627-4.286-1.06 1.239 0 5.951-1.001 7.703-1.001 1.751-8.067 10.28-10.723 13.033a23.435 23.435 0 0 1-5.904 4.478l1.612 9.171z" stroke="#4F5A76" fill="#FFF"/><path d="M196 117.394a5.511 5.511 0 0 0 4.888 5.483 3.31 3.31 0 0 0 .998-1.128s.177-.327.177-.887c0-.631-.443-1.159-1.035-1.285a3.391 3.391 0 0 0-1.08-.059l-1.704.18a1.303 1.303 0 0 1-1.014-.33 2.103 2.103 0 0 1-.63-1.05c.006-.028.015-.032.015-.032l2.16-.988a.524.524 0 0 0 .241-.365l.065-.406a.785.785 0 0 1 .27-.481l.948-.797c.013-.029.011-.037.004-.044a2.102 2.102 0 0 1-.625-1.689l.062-.716s.003-.025.028-.025c.018 0 .024.013.026.02.135.481.367.914.676 1.282.013.015.023.013.031.011.02-.025.02-.026.02-.028a2.09 2.09 0 0 1 .54-1.187c.034-.007.044-.002.048.011.084.403.349.736.705.912.336.153.596.444.707.801.025.022.026.022.027.022a5.469 5.469 0 0 1 3.077 1.292c.017.014.012.03.01.033-.004.011-.244.06-.72.147-.005.001-.027.005-.027.03.023.025.025.026.028.026a3.406 3.406 0 0 1 2.032 1.35c.012.015.024.014.031.012 0 0 .02-.004.02-.026l.001-.089c0-3.046-2.462-5.517-5.5-5.517s-5.5 2.47-5.5 5.517z" fill="#FFF"/><path d="M186.64 94.556c.757 1.227 1.488 1.84 2.194 1.84.707 0 1.438-.613 2.195-1.84" stroke="#4F5A76"/><g transform="translate(42 39)" stroke="#4F5A76"><circle cx="18.5" cy="52.5" r="5.5"/><path d="M18.765 3.65v18.196M26.349.99v6.925m.013 7.585v8.207m-16.346-8.309v11.328m8.476 12.232l.738-4.296 5.61 1.592-.655 3.924 3.702 2.419 2.997-2.419 3.913 4.76-3.214 2.437.47 4.492 4.047.745-1.303 6.116-3.214-.815-3.098 3.258 2.4 3.836-5.014 3.696-2.66-3.422-3.981.365-.969 4.176-6.476-1.12 1.015-3.695-3.667-2.86-3.354 2.331-3.305-5.171L5.78 56.94l-.782-4.328-4.113-1.07 1.163-5.71 4.021.714 2.651-3.124-2.258-4.127 4.462-3.04 2.696 3.04 2.615-.337"/></g><g stroke="#E9EAF0"><path d="M162.776 15.246l4.775 4.172 2.26-6.756m-2.381 6.362l-4.943 4.414"/><path d="M170.268 24.802l-2.73-5.5h5.818m-39.58 147.944l4.775 4.172 2.26-6.756m-2.381 6.362l-4.943 4.414"/><path d="M141.268 176.802l-2.73-5.5h5.818M.776 154.246l4.775 4.172 2.26-6.756m-2.381 6.362l-4.943 4.414"/><path d="M8.268 163.802l-2.73-5.5h5.818m268.42-137.056l4.775 4.172 2.26-6.756m-2.381 6.362l-4.943 4.414"/><path d="M287.268 30.802l-2.73-5.5h5.818m134.42-19.056l4.775 4.172 2.26-6.756m-2.381 6.362l-4.943 4.414"/><path d="M432.268 15.802l-2.73-5.5h5.818m159.42 110.944l4.775 4.172 2.26-6.756m-2.381 6.362l-4.943 4.414"/><path d="M602.268 130.802l-2.73-5.5h5.818m34.42-91.056l4.775 4.172 2.26-6.756m-2.381 6.362l-4.943 4.414"/><path d="M647.268 43.802l-2.73-5.5h5.818"/></g><path fill="#F69C84" d="M537.66 8.832l8.354-2.398 3.261 4.367-10.408 2.992zM528 11.885l5.078-1.436 1.045 4.84L528 17.23z"/><path d="M520.726 81.573l.63-3.648c-4.696-6.581-6.3-13.686-4.81-21.313 1.49-7.627 5.505-12.878 12.048-15.755" stroke="#4F5A76"/><path d="M524.312 52.693c.277-3.299 1.188-6.345 2.732-9.138 1.544-2.793 3.54-4.771 5.985-5.934l2.41-1.297" stroke="#4F5A76"/><path d="M533.02 38.131c2.808-1.431 4.46-1.888 4.956-1.37.496.52.914 1.57 1.255 3.152l1.317 4.444c-3.54.181-6.41.983-8.611 2.405-2.2 1.422-4.588 3.405-7.161 5.95.384-3.503 1.277-6.53 2.678-9.083 1.402-2.552 3.257-4.385 5.566-5.498zm17.726-8.629c6.978 2.214 11.956 5.29 14.934 9.226 2.978 3.936 4.986 8.8 6.022 14.593-3.36-3.067-7.205-5.535-11.533-7.402-4.327-1.868-7.992-2.664-10.992-2.39-1.816-2.025-2.245-4.243-1.285-6.655.469-1.179-1.045-2.26 0-3.313.728-.733 1.68-2.087 2.854-4.059z" fill="#EDEEF2"/><path d="M551.541 29.523c6.564 2.01 11.408 5.046 14.53 9.109s5.17 8.94 6.142 14.629m-42.297-30.407c-.081 2.186.448 4.611 1.588 7.277 1.71 3.998 6.738 7.72 11.658 6.573 4.92-1.147 8.262-6.573 8-11.155-.174-3.054-.95-6.006-2.326-8.856" stroke="#4F5A76"/><path d="M540 32.554c.906.946 1.846 1.262 2.821.947.975-.315 1.638-1.149 1.99-2.501m-7.644-26.605c3.02-.697 5.502-.312 7.446 1.152 1.944 1.465 3.694 4.366 5.25 8.703m-22.066 6.15c-.446-4.804-.446-8.066 0-9.786.447-1.72 1.906-3.26 4.38-4.621m2.897 11.898L531.59 2.706c.46-1.134 1.094-1.808 1.902-2.023.808-.214 1.754.113 2.839.983l3.761 14.796m18.998 59.23l-1.827-4.958c4.977-7.446 7.742-13.032 8.295-16.759.552-3.727-.65-8.677-3.61-14.85" stroke="#4F5A76"/><path stroke="#4F5A76" d="M525.334 20.576l26.38-7.111.87 2.412-26.736 7.41zm13.453 16.797c-.05 1.296.344 2.386 1.182 3.268.839.882 1.337 2.132 1.495 3.752m6.509-10.391c.182 1.597.182 3.03 0 4.3-.182 1.271.23 3.117 1.236 5.537"/><path stroke="#4F5A76" fill="#EDEEF3" d="M593.04 164l.96 8.802-8.747 1.112-1.077-8.947z"/><path d="M583.975 167.628l-4.74.485m5.377 3.516l-4.77.571m14.831-3.758c2.032-.543 3.673-.543 4.925 0 1.251.542 1.997 1.577 2.236 3.103m-.905 3.651c-.94 3.943-.83 7.599.329 10.967 1.159 3.368 3.791 7.266 7.897 11.694" stroke="#4F5A76"/><path d="M660.228 165.978c-1.218-5.742-5.294-10.48-12.228-14.212-2.77 4.924-5.512 8.73-8.228 11.42-2.715 2.69-3.015 14.227-.9 34.612h21.858c1.021-7.602 1.53-12.884 1.523-15.847-.015-7.439-1.334-12.712-2.025-15.973zm-30.702-5.682c-1-1.697-1.271-3.477-.815-5.34-2.602.442-4.7 2.222-6.293 5.34-1.593 3.117-3.075 15.607-4.444 37.47h12.816c.714-16.421 1.071-26.114 1.071-29.077 0-4.518-1.245-6.544-2.335-8.393z" fill="#F9F9F9"/><path d="M645 142c2.873-2.603 4.496-5.436 4.868-8.5.559-4.594-.407-11.946-7.771-13.941-7.364-1.996-9.838 1.995-14.549 1.995-3.14 0-5.653-.665-7.536-1.995-.15 4.828 1.161 8.265 3.936 10.31 4.162 3.067 11.164 1.444 13.811 2.554 1.764.74 2.861 2.12 3.29 4.14 2.71-2.686 4.479-3.46 5.307-2.32.828 1.14.377 3.725-1.355 7.757z" stroke="#4F5A76" fill="#B0D7F6"/><path d="M625.009 131c-.065 8.18.23 13.38.884 15.6.655 2.22 2.289 3.56 4.9 4.016v3.179c3.114 1.147 5.765 1.475 7.955.985 2.19-.49 4.273-1.878 6.252-4.164v-7.257m1 7.641c6.84 2.223 11.349 6.089 13.526 11.599 3.265 8.264 2.967 16.51 2.444 24.659-.349 5.432-.671 8.958-.967 10.576" stroke="#4F5A76"/><path d="M647 152c-.454 1.49-1.407 3.478-2.858 5.964-2.177 3.728-4.78 3.24-5.688 8.879-.605 3.76-.605 14.082 0 30.97M629.518 155c-.69 1.912-.69 3.507 0 4.787 1.035 1.92 2.808 3.755 2.43 7.325-.252 2.38-.506 12.664-.761 30.852" stroke="#4F5A76"/><path d="M630 154c-4.876 2.57-7.617 5.052-8.223 7.443-.606 2.392-1.865 14.565-3.777 36.52m15.92-52.446c-1.09.905-1.917 1.266-2.48 1.083-.561-.184-1.047-.973-1.456-2.369" stroke="#4F5A76"/><path d="M649.672 175.104c-9.1 7.747-17.385 11.502-24.854 11.265-7.468-.238-14.254-4.471-20.358-12.701h-5.188l-.278-3.214M66 132l-6.239 3.855.856 1.445-8.544 5.7L50 139.962l8.755-5.48 1.006 1.373M53 139l2 3" stroke="#4F5A76"/><path d="M15.338 173.565c.946-4.673 4.11-8.528 9.495-11.565 2.15 4.007 4.28 7.105 6.389 9.294 2.108 2.189 2.342 11.035.7 26.538L12 198c.504-5.211.758-9.023.763-11.434.012-6.054 2.038-10.347 2.575-13zm24.42-5.152c.753-1.38.958-2.828.614-4.344.94-.414 2.52 1.034 4.739 4.344C47.33 171.723 49.293 181.92 51 199l-12.193-.108C38.269 185.535 38 177.651 38 175.24c0-3.675.938-5.323 1.758-6.827z" fill="#F4F4F4"/><path d="M20.9 146.867c-.453-3.693 1.325-10.658 7.296-12.262 5.971-1.604 7.199.263 11.117 2.333 4.524 2.39 5.317 14.617 4.285 15.141-.688.35-1.12-.38-1.294-2.188-1.496-.203-2.882-.754-4.158-1.651-1.275-.898-2.216-1.985-2.822-3.262-1.874 2.135-3.67 3.772-5.392 4.913-2.582 1.71-3.939 1.26-5.323 2.188-1.383.93.49 7.17 0 7.839-.39.532-5.93 6.46-7.486 4.785-.824-.888 2.784-8.192 2.495-9.474-.29-1.282 1.467-6.857 1.282-8.362z" stroke="#4F5A76" fill="#B0D7F6"/><path d="M43 150c-.03 3.757-.304 6.521-.824 8.294-.52 1.773-1.818 2.842-3.892 3.206v2.538c-2.473.915-4.579 1.177-6.318.786-1.74-.39-3.394-1.499-4.966-3.324v-5.793M26 162c-5.398 1.796-8.956 4.92-10.673 9.372-2.577 6.678-3.28 11.31-3.74 18.035L11 198m15-36c.353 1.204 1.094 2.81 2.223 4.816 1.693 3.012 3.718 2.617 4.424 7.172.47 3.036.47 11.373 0 25.012m7.008-35c.46 1.557.46 2.857 0 3.9-.69 1.563-1.873 3.058-1.62 5.966.168 1.939.337 10.317.507 25.134" stroke="#4F5A76"/><path d="M39 163c1.967.377 4.082 2.346 6.343 5.91 2.26 3.562 4.147 13.259 5.657 29.09m-14.768-42.146c.834.683 1.475.946 1.922.787.447-.16.85-.793 1.207-1.901" stroke="#4F5A76"/><path d="M23.82 176.19c8.976 2.255 16.098 2.056 21.365-.597 5.267-2.654 8.773-7.809 10.519-15.465l3.71-1.73-.824-2.288m-17.915 8.336c5.026-3.111 9.404-9.312 13.134-18.602l3.554-2.052-1.038-2.238" stroke="#4F5A76"/><path d="M483.857 114.976c-1.09-4.692-5.493-8.652-13.211-11.88l-3.593 2.213c.487 9.093.962 16.008 1.424 20.745.065.664.111 1.308.14 1.931.114 2.553-.407 5.631-1.564 9.235 2.905-.053 5.46-.385 7.666-.995 2.777-.769 8.504-2.224 10.859-3.646 7.74-4.677 10.423-8.844 12.935-16.565 1.675-5.146 2.37-9.453 2.087-12.918h-7.365c-4.888 13.79-8.014 17.75-9.378 11.88zm-33.495-8.828l-9.185 10.176c-.353 2.796-.353 5.21 0 7.243.53 3.05 6.457 10.016 11.97 11.4 5.514 1.383 9.73 4.704 8.056-5.038-1.674-9.741.414-20.927 0-23.78-.276-1.903-1.548-2.74-3.816-2.51l-7.025 2.51z" fill="#B0D7F6"/><path fill="#FFF" d="M492 103h8v3l-8-.72z"/><path stroke="#98A1B5" d="M496 104l2-5.869L496 97"/><g stroke="#4F5A76"><path d="M453.597 94.19c3.231-5.648 6.592-8.643 10.082-8.983 3.49-.34 6.12.606 7.889 2.836l1.309 9.704c.845-3.535 1.268-6.624 1.268-9.266 0-3.962-2.635-8.632-11.86-8.632-6.15 0-9.047 4.78-8.688 14.341z" fill="#EDEEF0"/><path d="M455.158 92.154c0 5.572.83 9.274 2.489 11.107 2.489 2.75 9.048 4.65 12.835 0 2.525-3.1 2.86-8.066 1.005-14.9"/></g><path d="M462 101c.563.667 1.246 1 2.05 1 .803 0 1.453-.333 1.95-1" stroke="#4F5A76"/><path fill="#FFF" d="M454.724 109l6.276 2.995-1.399 3.005-6.601-3.005z"/><path d="M478.015 124.381c1.617 3.397 3.377 6.475 5.282 9.233 3.398-1.495 6.829-4.076 10.293-7.742 5.197-5.5 6.187-15.91 6.41-22.872h-7.629c-.707 4.56-1.5 7.633-2.376 9.218-.877 1.585-2.513 3.48-4.908 5.687-1.146-3.285-2.214-5.713-3.206-7.283-2.13-3.374-7.343-6.436-11.355-7.622m-3.23 2.327c1.751 16.052 1.751 26.794 0 32.227m-6.537-1.013c1.695-1.791-.98-10.36-.726-16.545.055-1.33.541-6.075 1.46-14.234l-4.241-2.436c-5.02 2.554-8.23 4.42-9.63 5.596-5.139 4.315-6.622 8.036-6.622 8.983 0 2.998-.225 4.414 1.815 8.92 1.36 3.005 2.962 4.908 4.807 5.709 2.04-.443 3.886-1.585 5.538-3.426 2.048-2.282 3.177-5.235 5.655-10.662.555-1.216 1.447-3.292 2.677-6.228l-7.533-3.198-3.698 6.06-.608.995" stroke="#4F5A76"/></g></svg>