<?xml version="1.0" encoding="utf-8"?>
<!-- Generator: Adobe Illustrator 16.0.0, SVG Export Plug-In . SVG Version: 6.00 Build 0)  -->
<!DOCTYPE svg PUBLIC "-//W3C//DTD SVG 1.1//EN" "http://www.w3.org/Graphics/SVG/1.1/DTD/svg11.dtd">
<svg version="1.1" id="图层_1" xmlns="http://www.w3.org/2000/svg" xmlns:xlink="http://www.w3.org/1999/xlink" x="0px" y="0px"
	 width="1000px" height="400px" viewBox="0 0 1000 400" enable-background="new 0 0 1000 400" xml:space="preserve">
<path fill="#808080" d="M49.407,292.884c-10.052-5.311-17.892-11.784-23.527-19.422c-0.564-0.828-0.845-1.743-0.845-2.737
	c0-0.83,0.281-1.702,0.845-2.616c0.564-0.911,1.219-1.533,1.972-1.868l21.131-9.959c0.564-0.33,1.409-0.499,2.536-0.499
	c2.439,0,4.411,0.915,5.917,2.739c2.254,2.988,5.635,5.396,10.144,7.221c4.509,1.826,8.918,2.741,13.242,2.741
	c7.326,0,13.428-2.158,18.315-6.475c4.882-4.315,7.418-9.874,7.608-16.682v-90.63H73.214c-1.316,0-2.493-0.454-3.522-1.369
	c-1.033-0.91-1.549-1.949-1.549-3.112v-21.163c0-1.16,0.514-2.156,1.549-2.988c1.03-0.83,2.206-1.246,3.522-1.246h66.213
	c1.503,0,2.721,0.416,3.663,1.246c0.938,0.832,1.409,1.91,1.409,3.236v116.026c0,13.283-4.085,24.611-12.257,33.986
	c-8.171,9.379-18.362,15.811-30.571,19.296c-6.198,1.659-13.152,2.49-20.851,2.49C69.926,300.933,59.451,298.199,49.407,292.884z"/>
<path fill="#808080" d="M209.565,289.221c-9.042-5.279-16.241-12.479-21.6-21.6c-5.363-9.12-8.04-19.039-8.04-29.76V191.3
	c0-1.279,0.438-2.317,1.32-3.12c0.877-0.799,1.879-1.2,3-1.2h22.56c1.279,0,2.317,0.401,3.12,1.2c0.799,0.802,1.2,1.841,1.2,3.12
	v46.562c0,8.002,2.719,14.76,8.16,20.279c5.438,5.521,12.079,8.278,19.92,8.278c6.079,0,11.678-1.276,16.8-3.84
	c5.119-2.56,9.199-6.038,12.24-10.438c3.038-4.398,4.56-9.158,4.56-14.279V131.301c0-1.117,0.439-2.119,1.32-3
	c0.877-0.877,1.957-1.32,3.24-1.32h22.08c1.278,0,2.358,0.442,3.239,1.32c0.878,0.881,1.32,1.883,1.32,3v106.561
	c0,10.884-2.76,20.843-8.28,29.88c-5.52,9.041-13.2,16.2-23.04,21.479c-9.84,5.28-21,7.921-33.48,7.921
	C228.484,297.141,218.603,294.501,209.565,289.221z M181.246,155.181c-0.881-0.878-1.32-1.879-1.32-3v-20.88
	c0-1.279,0.438-2.317,1.32-3.12c0.877-0.799,1.879-1.2,3-1.2h22.56c1.279,0,2.317,0.401,3.12,1.2c0.799,0.802,1.2,1.841,1.2,3.12
	v20.88c0,1.121-0.401,2.122-1.2,3c-0.803,0.881-1.841,1.32-3.12,1.32h-22.56C183.125,156.501,182.123,156.062,181.246,155.181z"/>
<path fill="#808080" d="M347.202,294.021c-1.042-0.961-1.561-2.16-1.561-3.602V132.26c0-1.278,0.519-2.438,1.561-3.48
	c1.039-1.039,2.198-1.56,3.479-1.56h25.92c1.44,0,2.641,0.521,3.601,1.56c0.96,1.042,1.439,2.202,1.439,3.48v127.682
	c0,1.281,0.48,2.439,1.44,3.479c0.96,1.042,2.077,1.561,3.359,1.561h58.08c1.439,0,2.642,0.479,3.602,1.439s1.438,2.081,1.438,3.359
	v20.641c0,1.439-0.479,2.641-1.438,3.602c-0.96,0.959-2.16,1.438-3.602,1.438h-93.841
	C349.399,295.461,348.241,294.98,347.202,294.021z"/>
<g>
	
		<animateTransform  restart="always" dur="1s" times="0;1" values="0 548 211;360 548 211" type="rotate" fill="remove" repeatCount="indefinite" attributeName="transform" calcMode="linear" additive="replace" accumulate="none">
		</animateTransform>
	<path fill="#808080" d="M470.683,247.581c-5.279-11.761-7.92-23.959-7.92-36.601c0-9.918,1.64-19.64,4.92-29.162
		c3.277-9.518,8.197-18.199,14.761-26.04c7.838-9.6,17.04-16.999,27.602-22.2c10.561-5.198,21.679-8.119,33.358-8.76h0.479
		c1.277,0,2.357,0.48,3.239,1.44c0.878,0.96,1.397,2.16,1.561,3.6v20.88c0,3.042-1.68,4.722-5.04,5.04
		c-7.199,0.642-14.08,2.682-20.64,6.12c-6.563,3.442-12.083,8.04-16.562,13.8c-8.641,10.56-12.96,22.481-12.96,35.76
		c0,8.002,1.681,15.721,5.04,23.16c3.359,7.438,8.159,13.8,14.399,19.079c10.561,8.641,22.397,12.961,35.521,12.961
		c7.999,0,15.68-1.683,23.04-5.04c7.356-3.36,13.599-8.238,18.72-14.643c4.32-5.117,7.562-10.758,9.722-16.92
		c2.159-6.156,3.239-12.438,3.239-18.84c0-9.119-2.002-17.599-6-25.44c-0.803-1.597-1.199-3.199-1.199-4.8
		c0-2.078,0.96-3.919,2.88-5.52c1.278-0.799,3.757-2.479,7.438-5.04c3.68-2.558,6-4.159,6.961-4.8c1.277-0.799,2.479-1.2,3.601-1.2
		c2.559,0,4.479,1.2,5.761,3.6c7.681,13.44,11.521,27.922,11.521,43.44c0,10.08-1.681,19.883-5.04,29.4
		c-3.359,9.521-8.32,18.201-14.88,26.039c-7.842,10.08-17.641,17.801-29.399,23.16c-11.76,5.361-24.041,8.041-36.84,8.041
		c-10.08,0-19.842-1.724-29.28-5.16c-9.44-3.439-17.843-8.438-25.199-15C483.56,269.463,475.963,259.341,470.683,247.581z"/>
</g>
<path fill="#808080" d="M765.16,294.98c0,0-0.643-0.799-1.921-2.398c-6.239-9.758-16.438-25.598-30.601-47.521
	c-14.16-21.918-24.84-38.64-32.04-50.16c-0.96-1.118-1.602-1.68-1.92-1.68c-0.322,0-0.521,0.323-0.601,0.96
	c-0.082,0.641-0.12,1.121-0.12,1.44l0.479,28.32c0,1.121-0.4,2.121-1.2,3c-0.804,0.881-1.841,1.317-3.119,1.317h-23.28
	c-1.282,0-2.362-0.396-3.239-1.198c-0.882-0.801-1.319-1.838-1.319-3.119V132.26c0-1.278,0.438-2.358,1.319-3.24
	c0.877-0.877,1.957-1.32,3.239-1.32h23.521c1.116,0,2.076,0.48,2.88,1.44l58.08,96.719c1.439,2.724,2.641,4.08,3.601,4.08
	c0.799,0,1.2-1.356,1.2-4.08l-0.24-93.602c0-1.278,0.438-2.358,1.319-3.24c0.879-0.877,1.88-1.32,3-1.32h25.439
	c1.278,0,2.358,0.442,3.239,1.32c0.878,0.881,1.32,1.961,1.32,3.24v158.4c0,1.281-0.442,2.32-1.32,3.119
	c-0.881,0.804-1.961,1.199-3.239,1.199h-22.08h-0.239h-0.239C765.797,294.98,765.16,294.98,765.16,294.98z"/>
<path fill="#808080" d="M832.075,155.661c-0.882-0.878-1.319-1.958-1.319-3.24v-20.64c0-1.279,0.438-2.317,1.319-3.12
	c0.878-0.799,1.88-1.2,3-1.2h111.358c1.279,0,2.359,0.442,3.24,1.32c0.878,0.881,1.319,1.883,1.319,3v20.64
	c0,1.121-0.441,2.16-1.319,3.12c-0.881,0.96-1.961,1.44-3.24,1.44H835.075C833.953,156.981,832.953,156.542,832.075,155.661z
	 M832.075,294.141c-0.882-0.877-1.319-1.879-1.319-3v-110.88c0-1.278,0.438-2.317,1.319-3.12c0.878-0.799,1.88-1.2,3-1.2h20.398
	c1.279,0,2.317,0.401,3.12,1.2c0.799,0.802,1.2,1.841,1.2,3.12v17.28c0,3.041,2.077,4.561,6.239,4.561h60.479
	c1.118,0,2.078,0.359,2.88,1.08c0.8,0.719,1.2,1.644,1.2,2.76v20.642c0,1.121-0.4,2.04-1.2,2.76c-0.802,0.722-1.762,1.08-2.88,1.08
	h-61.199c-3.683,0-5.521,1.683-5.521,5.04v26.16c0,1.121,0.479,2.159,1.439,3.118c0.96,0.962,1.997,1.44,3.118,1.44h82.563
	c1.277,0,2.316,0.4,3.119,1.199c0.799,0.803,1.2,1.842,1.2,3.12v20.64c0,1.121-0.401,2.123-1.2,3
	c-0.803,0.881-1.842,1.32-3.119,1.32H835.073C833.953,295.461,832.953,295.021,832.075,294.141z"/>
</svg>
